HIERARCHY
ROOT joint_0
{
	OFFSET 0.000000 0.000000 0.000000
	CHANNELS 6 Xposition Yposition Zposition Zrotation Yrotation Xrotation 
	JOINT joint_1
	{
		OFFSET 0.587158 0.057678 95.682007
		CHANNELS 3 Zrotation Yrotation Xrotation
		JOINT joint_2
		{
			OFFSET -7.116699 -0.219910 87.157959
			CHANNELS 3 Zrotation Yrotation Xrotation
			JOINT joint_3
			{
				OFFSET -5.892822 -0.290222 87.151001
				CHANNELS 3 Zrotation Yrotation Xrotation
				JOINT joint_4
				{
					OFFSET 5.544678 -0.099609 123.768066
					CHANNELS 3 Zrotation Yrotation Xrotation
					JOINT joint_5
					{
						OFFSET 41.981201 4.519775 84.257935
						CHANNELS 3 Zrotation Yrotation Xrotation
						End Site
						{
							OFFSET 0.000000 0.000000 0.000000
						}
					}
				}
				JOINT joint_6
				{
					OFFSET 3.940918 -26.976501 69.308105
					CHANNELS 3 Zrotation Yrotation Xrotation
					JOINT joint_7
					{
						OFFSET 4.776123 -152.592468 -16.842041
						CHANNELS 3 Zrotation Yrotation Xrotation
						JOINT joint_8
						{
							OFFSET 54.421875 -30.424072 -248.864014
							CHANNELS 3 Zrotation Yrotation Xrotation
							JOINT joint_9
							{
								OFFSET 42.120117 -33.387878 -236.524963
								CHANNELS 3 Zrotation Yrotation Xrotation
								End Site
								{
									OFFSET 0.000000 0.000000 0.000000
								}
							}
						}
					}
				}
				JOINT joint_10
				{
					OFFSET 2.312012 26.904114 69.425049
					CHANNELS 3 Zrotation Yrotation Xrotation
					JOINT joint_11
					{
						OFFSET 0.971436 152.197815 -20.626953
						CHANNELS 3 Zrotation Yrotation Xrotation
						JOINT joint_12
						{
							OFFSET 49.954102 28.991455 -249.970093
							CHANNELS 3 Zrotation Yrotation Xrotation
							JOINT joint_13
							{
								OFFSET 48.146973 19.598389 -236.919922
								CHANNELS 3 Zrotation Yrotation Xrotation
								End Site
								{
									OFFSET 0.000000 0.000000 0.000000
								}
							}
						}
					}
				}
			}
		}
	}
	JOINT joint_14
	{
		OFFSET 16.305664 -89.442932 -108.224976
		CHANNELS 3 Zrotation Yrotation Xrotation
		JOINT joint_15
		{
			OFFSET -22.282471 13.437134 -412.904968
			CHANNELS 3 Zrotation Yrotation Xrotation
			JOINT joint_16
			{
				OFFSET -45.426025 14.484802 -445.892029
				CHANNELS 3 Zrotation Yrotation Xrotation
				JOINT joint_17
				{
					OFFSET 173.389404 -9.944031 -76.473001
					CHANNELS 3 Zrotation Yrotation Xrotation
					End Site
					{
						OFFSET 0.000000 0.000000 0.000000
					}
				}
			}
		}
	}
	JOINT joint_18
	{
		OFFSET 13.392822 89.408875 -108.653992
		CHANNELS 3 Zrotation Yrotation Xrotation
		JOINT joint_19
		{
			OFFSET -29.032959 24.483521 -411.977966
			CHANNELS 3 Zrotation Yrotation Xrotation
			JOINT joint_20
			{
				OFFSET -30.530029 28.986328 -446.453018
				CHANNELS 3 Zrotation Yrotation Xrotation
				JOINT joint_21
				{
					OFFSET 170.330078 33.400757 -76.698997
					CHANNELS 3 Zrotation Yrotation Xrotation
					End Site
					{
						OFFSET 0.000000 0.000000 0.000000
					}
				}
			}
		}
	}
}
MOTION
Frames: 12
Frame Time: 0.016667
-1792.498657 848.681519 1062.946045 5.371681 1.623915 1.222439 0.531935 -2.244062 -2.139750 0.756639 0.233613 0.540057 0.694973 -0.270310 -0.357373 -0.662597 -3.114423 1.562939 0.000000 0.000000 0.000000 7.035422 4.547265 1.878533 -0.949930 5.348880 -1.486031 0.701108 -6.898078 -0.992701 0.000000 0.000000 0.000000 -2.180362 1.913964 -0.458413 0.653898 2.274984 1.943803 -0.265367 -1.880729 -0.455051 0.000000 0.000000 0.000000 -0.278453 -0.979397 0.445254 -0.207378 0.764369 0.190271 -0.217161 -0.573988 -0.128456 0.000000 0.000000 0.000000 -1.382297 -3.496401 -3.410936 -1.327232 2.193706 0.716038 -1.406658 -0.372148 -0.559096 0.000000 0.000000 0.000000 
-1790.741821 849.530334 1062.644043 5.364490 1.735550 1.133381 1.029304 -1.430839 -1.683724 1.210975 0.327435 0.532076 1.149344 -0.247705 -0.372334 -0.825429 -4.049784 1.924769 0.000000 0.000000 0.000000 6.633327 5.160756 1.167865 -0.861096 5.954555 -0.609394 0.654959 -7.647218 -1.634641 0.000000 0.000000 0.000000 -3.983006 2.511743 -0.507034 0.845876 3.132138 2.424756 -0.684838 -4.604466 -1.200750 0.000000 0.000000 0.000000 -0.258755 -0.959595 0.490260 -0.188212 0.707149 0.200759 -0.197578 -0.629308 -0.123010 0.000000 0.000000 0.000000 -1.347206 -3.472277 -3.452008 -1.311527 2.151063 0.885466 -1.386137 -0.486847 -0.527374 0.000000 0.000000 0.000000 
-1788.427856 850.103271 1062.781982 5.609220 2.099340 1.101216 1.243758 -0.887679 -1.372574 1.394900 0.371873 0.494869 1.336898 -0.233414 -0.358139 -0.862898 -4.922290 2.035240 0.000000 0.000000 0.000000 5.871601 5.264270 0.790869 -0.716475 5.984581 0.003301 0.511429 -7.574888 -2.363023 0.000000 0.000000 0.000000 -5.280393 3.071124 -0.699827 1.033599 3.877060 3.041351 -1.034087 -7.044247 -1.721652 0.000000 0.000000 0.000000 -0.326905 -1.206295 0.493766 -0.250179 0.697216 0.231247 -0.253624 -0.629749 -0.147692 0.000000 0.000000 0.000000 -1.407105 -3.752265 -3.382078 -1.344578 2.125878 0.792497 -1.421777 -0.469726 -0.546662 0.000000 0.000000 0.000000 
-1785.496582 849.986633 1063.541992 6.408050 2.947272 1.183322 0.901056 -0.943192 -1.363194 1.041441 0.314039 0.387449 0.997271 -0.209085 -0.248879 -0.646921 -5.580667 1.666607 0.000000 0.000000 0.000000 4.676724 4.409074 1.141278 -0.484197 4.962276 0.065793 0.074780 -5.672098 -3.584247 0.000000 0.000000 0.000000 -5.716373 3.535076 -1.213264 1.242029 4.411753 3.783064 -1.137957 -8.456085 -1.623551 0.000000 0.000000 0.000000 -0.558790 -1.772988 0.444726 -0.478403 0.378361 0.260372 -0.454384 -0.413100 -0.223601 0.000000 0.000000 0.000000 -1.686402 -4.560658 -3.078545 -1.521365 1.976612 0.199562 -1.603357 -0.191561 -0.682530 0.000000 0.000000 0.000000 
-1782.007812 849.593201 1064.740967 7.473045 4.051909 1.337099 0.285354 -1.277556 -1.469517 0.419737 0.214388 0.247311 0.393413 -0.190649 -0.114413 -0.299108 -6.171362 1.058248 0.000000 0.000000 0.000000 3.098607 3.061308 1.907082 -0.273397 3.392232 -0.083078 -0.540300 -3.126975 -5.063701 0.000000 0.000000 0.000000 -5.707366 3.954073 -1.793591 1.470193 4.845215 4.572199 -1.167472 -9.574228 -1.366984 0.000000 0.000000 0.000000 -0.882565 -2.615493 0.362780 -0.790362 0.107850 0.303445 -0.733530 -0.132380 -0.330280 0.000000 0.000000 0.000000 -2.061522 -5.695981 -2.651841 -1.745855 1.858865 -0.669047 -1.838287 0.253328 -0.874709 0.000000 0.000000 0.000000 
-1778.484375 849.698853 1066.441040 8.125820 4.930372 1.463261 -0.144189 -1.375023 -1.531896 -0.016086 0.109593 0.161036 -0.033252 -0.174042 -0.068172 -0.053849 -6.660556 0.640629 0.000000 0.000000 0.000000 2.001590 2.185947 2.327928 -0.178438 2.368307 -0.278783 -0.660899 -2.555894 -5.316706 0.000000 0.000000 0.000000 -5.407581 4.236475 -1.784150 1.656619 5.097991 5.133380 -1.437599 -11.584938 -1.893871 0.000000 0.000000 0.000000 -1.156524 -3.879122 0.223533 -1.005707 1.043199 0.460307 -0.952484 -0.182480 -0.429285 0.000000 0.000000 0.000000 -2.250971 -6.839203 -2.358988 -1.772023 2.284784 -1.379378 -1.906164 0.650993 -0.982376 0.000000 0.000000 0.000000 
-1775.098267 850.685547 1068.781006 8.068113 5.517857 1.600301 -0.227689 -1.195210 -1.768836 -0.072917 0.074519 0.272725 -0.104431 -0.169529 -0.166295 -0.056218 -7.039216 0.693761 0.000000 0.000000 0.000000 1.900454 2.303549 2.003563 -0.323094 2.487399 -0.701411 0.183226 -5.347183 -2.896675 0.000000 0.000000 0.000000 -4.588235 4.379274 -0.837232 1.787971 5.125806 5.506222 -2.173073 -15.215265 -3.940603 0.000000 0.000000 0.000000 -1.361672 -5.889917 -0.057394 -1.067102 3.868333 0.738259 -1.063844 -0.724046 -0.508638 0.000000 0.000000 0.000000 -2.098487 -8.079618 -2.429337 -1.437589 3.598523 -1.759504 -1.660299 0.951991 -0.930062 0.000000 0.000000 0.000000 
-1771.677368 852.171326 1071.620972 7.579479 5.930824 1.779362 -0.152138 -0.877783 -2.201796 0.057968 0.082117 0.524456 -0.003204 -0.163256 -0.331886 -0.179514 -7.312570 0.976104 0.000000 0.000000 0.000000 2.348017 2.846133 1.441249 -0.838113 3.132325 -1.443607 1.351236 -10.091976 0.876705 0.000000 0.000000 0.000000 -3.388910 4.336931 0.501638 1.889641 4.910741 5.904602 -3.150711 -19.689780 -6.761432 0.000000 0.000000 0.000000 -1.524071 -8.384185 -0.462263 -1.012457 7.881310 1.062108 -1.055787 -1.295830 -0.536444 0.000000 0.000000 0.000000 -1.759765 -9.373990 -2.750153 -0.894783 5.436837 -1.924841 -1.213448 1.298890 -0.796224 0.000000 0.000000 0.000000 
-1768.224365 853.780945 1074.609985 6.806943 5.988513 1.866676 0.042148 -0.228797 -2.409188 0.274115 0.026269 0.669374 0.194037 -0.100419 -0.435415 -0.269441 -7.429738 1.177627 0.000000 0.000000 0.000000 2.747120 3.124822 0.799798 -1.482748 3.524022 -2.037445 2.141528 -14.709129 3.801239 0.000000 0.000000 0.000000 -2.558919 4.011464 1.626720 2.015310 4.473744 6.189502 -3.969873 -24.126808 -9.031283 0.000000 0.000000 0.000000 -1.560976 -10.682241 -0.888614 -0.797613 12.226514 1.465188 -0.847986 -1.458274 -0.453184 0.000000 0.000000 0.000000 -1.417350 -10.220626 -3.057167 -0.368521 7.248652 -1.891839 -0.750023 1.678131 -0.661440 0.000000 0.000000 0.000000 
-1765.024292 855.548889 1077.957031 5.598678 5.475612 1.809564 0.459536 1.067637 -2.158956 0.631650 -0.164499 0.578619 0.557484 0.083463 -0.401472 -0.258447 -7.366846 1.162241 0.000000 0.000000 0.000000 2.889239 2.939736 -0.203813 -1.922006 3.421006 -2.090073 2.525175 -18.829423 5.039699 0.000000 0.000000 0.000000 -2.515000 3.357999 2.324253 2.243810 3.831156 6.200716 -4.488562 -28.828323 -10.257498 0.000000 0.000000 0.000000 -1.341830 -12.531041 -1.312304 -0.297857 16.835307 1.962681 -0.301764 -0.791761 -0.176424 0.000000 0.000000 0.000000 -1.091885 -10.380297 -3.297860 0.097162 9.030373 -1.610087 -0.313057 2.097377 -0.546691 0.000000 0.000000 0.000000 
-1761.793213 857.441467 1081.452026 4.112371 4.604520 1.739528 1.029228 2.714493 -1.783221 1.064045 -0.423032 0.402655 1.003214 0.320855 -0.295105 -0.217355 -7.151807 1.076508 0.000000 0.000000 0.000000 2.990272 2.521176 -1.387972 -2.273489 3.081894 -1.931984 2.730385 -22.804789 5.498762 0.000000 0.000000 0.000000 -2.871482 2.417655 2.761774 2.577817 2.966347 6.127228 -4.785503 -33.483475 -10.908429 0.000000 0.000000 0.000000 -0.990401 -14.202594 -1.792612 0.378804 21.730121 2.534175 0.476729 0.533499 0.234224 0.000000 0.000000 0.000000 -0.757753 -10.104383 -3.570839 0.541941 10.786788 -1.193262 0.129658 2.610994 -0.448553 0.000000 0.000000 0.000000 
-1757.681519 858.984802 1084.119019 2.892534 3.868243 1.720218 1.461144 3.903515 -1.579471 1.309818 -0.615751 0.281258 1.251494 0.483489 -0.214123 -0.191925 -6.787011 1.016063 0.000000 0.000000 0.000000 3.117966 1.892934 -2.218821 -2.490666 2.509537 -1.923067 2.863257 -25.588194 5.752944 0.000000 0.000000 0.000000 -3.195251 1.347550 3.160823 2.942534 1.974860 6.127575 -4.841582 -36.577657 -11.222503 0.000000 0.000000 0.000000 -0.792365 -15.901678 -2.362668 0.938691 26.398709 3.244204 1.166758 1.633583 0.586930 0.000000 0.000000 0.000000 -0.510758 -9.653647 -3.794445 0.877237 12.017336 -0.888735 0.484932 3.069079 -0.379693 0.000000 0.000000 0.000000 
